<svg width="254" height="305" viewBox="0 0 254 305" fill="none" xmlns="http://www.w3.org/2000/svg">
<path d="M115.609 244.267C111.833 244.255 108.074 243.785 104.419 242.868L103.699 242.675L103.03 242.352C78.8712 230.643 58.4894 215.177 42.4511 196.384C29.1747 180.736 18.8238 162.969 11.8639 143.882C3.54095 121.031 -0.463214 96.9191 0.0425772 72.6978C0.0527831 72.1894 0.0614205 71.7968 0.0614205 71.5264C0.0614205 59.7522 6.82253 49.4213 17.2861 45.2069C25.2944 41.9814 98.006 13.1122 103.26 11.0263C113.154 6.23418 123.709 10.2339 125.398 10.9334C129.186 12.4308 196.404 39.0063 210.929 45.6923C225.9 52.5831 229.894 64.9622 229.894 71.1903C229.894 99.3869 224.842 125.739 214.878 149.514C206.832 168.759 195.427 186.525 181.162 202.04C153.638 231.98 126.106 242.595 125.841 242.688C122.55 243.783 119.088 244.317 115.609 244.267ZM109.135 228.765C111.522 229.282 117.017 230.058 120.599 228.795C125.149 227.191 148.192 215.64 169.725 192.216C199.477 159.853 214.573 119.169 214.595 71.2943C214.542 70.3244 213.829 63.4067 204.352 59.0445C190.108 52.4879 120.241 24.8725 119.537 24.5942L119.344 24.5151C117.88 23.922 113.22 22.6728 110.008 24.2998L109.365 24.5896C108.586 24.8988 31.4022 55.5424 23.1704 58.8578C17.4121 61.1771 15.3604 66.9227 15.3604 71.5264C15.3604 71.8628 15.3514 72.3522 15.3387 72.9847C14.6808 105.742 22.5226 186.348 109.135 228.765Z" fill="#3F3D56"/>
<path d="M106.459 17.7497C106.459 17.7497 28.5732 48.6713 20.2282 52.0323C11.8833 55.3934 7.71089 63.4599 7.71089 71.5264C7.71089 79.5929 1.45223 184.85 106.459 235.742C106.459 235.742 115.989 238.291 123.22 235.742C130.45 233.193 222.244 190.171 222.244 71.1903C222.244 71.1903 222.244 59.0905 207.641 52.3684C193.037 45.6463 122.431 17.7497 122.431 17.7497C122.431 17.7497 113.761 14.0525 106.459 17.7497Z" fill="#C3205D"/>
<path opacity="0.1" d="M114.804 41.9492V206.905C114.804 206.905 36.2227 170.341 36.9181 74.2152L114.804 41.9492Z" fill="black"/>
<path d="M115.829 160.505L90.7965 129.393L105.354 118.449L117.206 133.18L157.246 92.3218L170.636 104.584L115.829 160.505Z" fill="white"/>
<path d="M194.013 296.1L203.297 296.1L207.714 261.482L194.011 261.482L194.013 296.1Z" fill="#FFB8B8"/>
<path d="M191.644 293.17L209.929 293.169H209.93C213.02 293.169 215.984 294.356 218.169 296.468C220.355 298.581 221.582 301.446 221.583 304.433V304.799L191.645 304.8L191.644 293.17Z" fill="#2F2E41"/>
<path d="M225.231 296.1L234.515 296.1L238.932 261.482L225.229 261.482L225.231 296.1Z" fill="#FFB8B8"/>
<path d="M222.862 293.17L241.147 293.169H241.148C244.238 293.169 247.202 294.356 249.387 296.468C251.573 298.581 252.801 301.446 252.801 304.433V304.799L222.863 304.8L222.862 293.17Z" fill="#2F2E41"/>
<path d="M208.606 174.531L210.833 284.356L192.816 283.276L180.317 213.323L176.369 165.628L208.606 174.531Z" fill="#2F2E41"/>
<path d="M239.526 156.089L242.051 286.097L221.039 285.517L216.501 208.236L208.606 180.255L176.37 165.628L181.633 130.651L229 130.016L239.526 156.089Z" fill="#2F2E41"/>
<path d="M203.3 39.7125C212.198 39.7125 219.412 32.7394 219.412 24.1377C219.412 15.536 212.198 8.56296 203.3 8.56296C194.401 8.56296 187.188 15.536 187.188 24.1377C187.188 32.7394 194.401 39.7125 203.3 39.7125Z" fill="#FFB8B8"/>
<path d="M216.664 46.2735L219.132 49.8877L225.711 67.6936L220.448 137.01L189.527 137.647L185.58 58.1543L193.849 48.1636L216.664 46.2735Z" fill="#CCCCCC"/>
<path d="M173.08 60.0624L167.817 59.4265C167.817 59.4265 166.501 60.0624 165.843 64.514C165.186 68.9655 157.291 108.394 157.291 108.394L167.817 156.725L179.659 141.462L172.422 114.753L179.659 88.0437L173.08 60.0624Z" fill="#2F2E41"/>
<path d="M240.184 59.427H244.132L254 110.937L244.789 151.001L235.579 136.375L238.21 120.476L236.895 106.486L232.29 98.2184L240.184 59.427Z" fill="#2F2E41"/>
<path d="M212.821 24.1377L209.891 23.4298C209.891 23.4298 207.694 11.3947 202.568 12.8106C197.441 14.2265 184.258 15.6424 184.258 9.97883C184.258 4.31527 196.709 -0.64031 204.032 0.0676321C211.356 0.775575 220.71 3.12416 223.074 13.5185C226.864 30.1812 215.254 34.39 215.254 34.39L215.447 33.7833C215.983 32.0988 216.022 30.3028 215.558 28.5983C215.094 26.8938 214.146 25.3487 212.821 24.1377Z" fill="#2F2E41"/>
<path d="M168.475 59.4265L189.527 51.1593L194.461 47.6617L209.264 110.937L216.172 45.7538L243.474 59.4265L234.263 102.67L232.948 119.205L236.895 132.559C236.895 132.559 250.71 142.098 246.105 152.273C241.5 162.448 236.237 163.084 236.237 163.084C236.237 163.084 213.869 142.734 212.553 137.647C211.237 132.559 209.264 123.656 209.264 123.656C209.264 123.656 198.08 164.356 184.922 163.72C171.764 163.084 171.764 149.729 171.764 149.729L175.054 135.739L180.317 121.112L177.685 96.9467L168.475 59.4265Z" fill="#2F2E41"/>
</svg>
